<?xml version="1.0" standalone="no"?>
<!DOCTYPE svg PUBLIC "-//W3C//DTD SVG 20010904//EN"
 "http://www.w3.org/TR/2001/REC-SVG-20010904/DTD/svg10.dtd">
<svg version="1.0" xmlns="http://www.w3.org/2000/svg"
 width="194.000000pt" height="194.000000pt" viewBox="0 0 194.000000 194.000000"
 preserveAspectRatio="xMidYMid meet">
<metadata>
Created by potrace 1.14, written by Peter Selinger 2001-2017
</metadata>
<g transform="translate(0.000000,194.000000) scale(0.100000,-0.100000)"
fill="#000000" stroke="none">
<path d="M766 1558 c-39 -91 37 -232 109 -204 32 12 40 68 22 141 -3 11 -6 23
-6 26 -1 3 -15 20 -31 38 -41 42 -76 42 -94 -1z"/>
<path d="M603 1523 c-23 -23 -28 -36 -27 -73 2 -115 85 -192 131 -122 10 15
18 43 18 62 0 52 -34 125 -66 144 -28 16 -29 16 -56 -11z"/>
<path d="M966 1454 c-18 -18 -23 -67 -12 -119 7 -29 31 -64 52 -76 30 -15 49
-1 63 47 20 72 -62 190 -103 148z"/>
<path d="M499 1313 c-29 -76 17 -184 75 -178 36 4 37 5 31 14 -3 5 -1 12 4 15
9 6 8 43 -5 99 -7 35 -48 77 -75 77 -12 0 -23 -10 -30 -27z"/>
<path d="M757 1319 c-18 -10 -35 -45 -43 -84 -2 -11 -19 -51 -39 -89 -19 -38
-35 -80 -35 -93 0 -36 43 -75 77 -68 40 7 83 26 83 37 0 5 4 7 9 4 5 -4 11 -1
13 6 3 8 29 13 74 14 93 3 87 1 112 24 26 25 28 67 4 97 -9 11 -44 38 -77 59
-33 20 -69 47 -80 59 -20 23 -57 45 -72 45 -4 0 -16 -5 -26 -11z"/>
<path d="M1270 1300 c0 -5 -8 -10 -18 -10 -11 0 -26 -8 -35 -18 -19 -20 -30
-72 -16 -72 6 0 8 -4 5 -9 -3 -5 0 -11 8 -14 24 -9 55 22 61 61 4 20 9 45 12
55 2 9 0 17 -6 17 -6 0 -11 -4 -11 -10z"/>
<path d="M1335 1280 c-3 -5 1 -10 10 -10 9 0 13 5 10 10 -3 6 -8 10 -10 10 -2
0 -7 -4 -10 -10z"/>
<path d="M1131 1262 c0 -8 -9 -26 -19 -40 -29 -44 -13 -102 28 -102 23 0 44
26 37 44 -3 8 -1 17 6 20 9 3 9 5 0 5 -7 1 -13 8 -13 16 0 7 -6 18 -14 22 -8
4 -16 17 -19 28 -2 11 -5 14 -6 7z"/>
<path d="M1322 1252 c-32 -21 -33 -112 -1 -112 19 0 50 21 44 31 -4 5 -2 9 2
9 12 0 14 40 2 62 -10 19 -26 23 -47 10z"/>
<path d="M1410 1150 c-8 -4 -28 -13 -43 -19 -32 -13 -49 -48 -35 -73 23 -46
93 3 95 66 0 20 0 36 -1 35 0 0 -8 -4 -16 -9z"/>
<path d="M1210 1126 c-7 -9 -18 -16 -24 -16 -6 0 -25 -9 -43 -19 -24 -15 -30
-25 -26 -41 6 -23 32 -40 66 -44 12 -1 38 -10 59 -20 70 -36 91 -4 55 86 -21
50 -30 64 -50 66 -13 2 -30 -4 -37 -12z"/>
<path d="M735 902 c-2 -2 -30 -5 -62 -7 -32 -2 -63 -4 -70 -4 -7 -1 -10 -16
-7 -43 18 -199 18 -199 27 -198 4 0 18 0 32 0 23 0 25 3 21 45 -2 25 1 46 5
46 16 2 49 6 62 8 9 1 12 11 9 31 -4 29 -6 30 -42 26 -26 -3 -40 0 -43 9 -6
14 32 25 85 25 26 0 28 3 26 33 -1 24 -6 33 -20 33 -11 0 -21 -2 -23 -4z"/>
<path d="M804 896 c-2 -6 -2 -51 0 -101 3 -49 5 -100 5 -112 1 -19 7 -23 31
-23 31 0 32 2 32 55 0 35 10 43 49 40 16 -1 29 0 30 4 7 55 10 52 -51 55 -15
0 -25 7 -25 16 0 11 13 15 50 16 68 2 66 1 62 32 l-4 27 -87 1 c-55 1 -89 -3
-92 -10z"/>
<path d="M1069 896 c-1 -6 -2 -33 -3 -61 -1 -27 -5 -56 -9 -62 -5 -8 -3 -13 3
-13 6 0 8 -5 5 -11 -10 -15 -12 -80 -3 -85 12 -8 163 -16 156 -8 -4 4 -3 13 3
21 19 22 -6 41 -51 38 -24 -1 -41 2 -41 9 -1 6 -2 49 -3 95 l-1 85 -27 1 c-16
1 -28 -3 -29 -9z"/>
<path d="M1264 877 c-4 -12 -8 -35 -10 -52 -14 -180 -15 -172 8 -178 12 -4 25
-4 29 -2 9 6 17 51 25 145 3 41 7 79 8 84 0 5 -11 12 -26 16 -23 7 -28 4 -34
-13z"/>
<path d="M520 880 c-28 -7 -28 -9 -15 -121 6 -57 5 -67 -10 -73 -9 -3 -20 -4
-25 -1 -7 4 -21 69 -34 162 -3 16 -17 20 -60 14 -10 -1 -3 -65 19 -171 2 -8 4
-20 4 -25 2 -22 59 -45 97 -40 54 7 78 34 76 87 -6 171 -8 178 -52 168z"/>
<path d="M1369 888 c-6 -27 -11 -47 -13 -68 -2 -14 -7 -52 -12 -85 -13 -96
-12 -98 22 -102 20 -2 31 1 32 9 1 7 4 24 6 38 2 14 5 28 5 32 1 3 18 4 38 3
38 -4 53 6 53 37 0 10 -13 19 -37 25 -20 4 -38 14 -41 21 -3 10 9 12 57 6 40
-4 61 -3 61 4 0 6 3 17 6 25 6 17 -15 27 -76 34 -25 2 -52 6 -60 7 -8 1 -21 5
-27 9 -7 5 -13 7 -14 5z"/>
<path d="M1565 827 c-4 -12 -9 -38 -10 -57 -2 -19 -4 -35 -5 -35 -2 0 -4 -9
-5 -20 -5 -39 -16 -88 -20 -96 -4 -6 44 -21 110 -33 11 -2 25 -5 30 -6 23 -5
33 1 37 25 5 22 1 26 -36 35 -69 18 -70 18 -56 35 9 11 17 12 32 4 11 -6 25
-8 32 -6 14 5 28 56 17 58 -53 6 -64 12 -67 35 -2 11 3 13 19 8 12 -4 29 -8
37 -9 9 0 22 -5 29 -10 9 -5 19 -2 28 11 24 33 12 48 -52 62 -109 22 -112 22
-120 -1z"/>
<path d="M203 825 c-23 -5 -44 -13 -48 -16 -6 -7 29 -177 45 -216 7 -16 15
-21 27 -16 35 12 43 24 32 45 -7 14 -7 23 1 33 9 11 18 8 46 -21 26 -28 39
-34 56 -28 33 10 33 10 6 46 -22 28 -25 41 -21 83 9 86 -40 117 -144 90z m81
-60 c6 -15 -5 -30 -27 -38 -22 -8 -34 17 -18 36 13 17 39 18 45 2z"/>
<path d="M1550 505 c-9 -10 -9 -15 -1 -15 6 0 11 5 11 11 0 5 5 7 12 3 7 -4 8
-3 4 4 -9 15 -11 15 -26 -3z"/>
<path d="M163 492 c0 -12 5 -22 9 -22 11 0 10 12 -2 30 -7 12 -9 10 -7 -8z"/>
<path d="M190 496 c0 -8 4 -17 9 -21 6 -3 9 4 8 15 -1 23 -17 28 -17 6z"/>
<path d="M233 498 c3 -9 1 -19 -6 -22 -7 -2 -4 -5 6 -5 20 -1 21 7 6 29 -9 13
-10 13 -6 -2z"/>
<path d="M347 490 c3 -11 9 -17 14 -15 10 7 1 35 -11 35 -5 0 -6 -9 -3 -20z"/>
<path d="M380 501 c0 -10 19 -25 25 -20 1 2 -3 10 -11 17 -8 7 -14 8 -14 3z"/>
<path d="M457 490 c-3 -11 -1 -23 4 -26 5 -3 9 6 9 20 0 31 -6 34 -13 6z"/>
<path d="M523 495 c0 -8 4 -15 9 -15 4 0 8 4 8 9 0 6 -4 12 -8 15 -5 3 -9 -1
-9 -9z"/>
<path d="M835 500 c3 -5 8 -10 11 -10 2 0 4 5 4 10 0 6 -5 10 -11 10 -5 0 -7
-4 -4 -10z"/>
<path d="M874 501 c4 -5 0 -12 -6 -14 -8 -3 -6 -6 5 -6 9 -1 17 6 17 14 0 8
-5 15 -11 15 -5 0 -8 -4 -5 -9z"/>
<path d="M985 501 c6 -11 4 -13 -7 -8 -10 3 -24 -3 -35 -16 -10 -12 -11 -17
-3 -11 8 7 25 10 37 8 21 -4 27 17 8 33 -4 5 -5 2 0 -6z"/>
<path d="M1017 503 c-11 -10 -8 -45 2 -38 6 3 9 14 8 25 -1 23 -1 22 -10 13z"/>
<path d="M1104 502 c-6 -4 -9 -14 -5 -23 5 -14 8 -15 19 -3 10 11 10 14 0 14
-9 0 -9 3 2 10 8 5 11 10 5 10 -5 0 -15 -4 -21 -8z"/>
<path d="M1265 500 c-3 -6 1 -7 9 -4 18 7 21 14 7 14 -6 0 -13 -4 -16 -10z"/>
<path d="M1370 502 c0 -5 7 -9 15 -9 8 0 12 4 9 9 -3 4 -9 8 -15 8 -5 0 -9 -4
-9 -8z"/>
<path d="M1478 503 c-9 -18 -2 -36 15 -39 14 -2 15 1 8 10 -6 7 -8 15 -5 18 3
3 1 9 -5 12 -5 4 -11 3 -13 -1z"/>
<path d="M1705 501 c-3 -6 5 -15 17 -21 21 -10 21 -10 6 3 -10 8 -15 17 -11
20 3 4 4 7 0 7 -3 0 -8 -4 -12 -9z"/>
<path d="M290 489 c0 -5 5 -7 10 -4 6 3 10 8 10 11 0 2 -4 4 -10 4 -5 0 -10
-5 -10 -11z"/>
<path d="M486 493 c-11 -11 -6 -23 9 -23 8 0 15 4 15 9 0 13 -16 22 -24 14z"/>
<path d="M796 493 c-11 -11 -6 -23 9 -23 8 0 15 4 15 9 0 13 -16 22 -24 14z"/>
<path d="M1141 484 c0 -11 3 -14 6 -6 3 7 2 16 -1 19 -3 4 -6 -2 -5 -13z"/>
<path d="M1208 493 c-21 -5 -23 -19 -5 -29 6 -4 9 -4 5 1 -4 4 0 14 10 21 18
14 17 14 -10 7z"/>
<path d="M1327 493 c-12 -11 -8 -23 7 -23 8 0 18 4 21 10 4 6 -1 7 -11 3 -12
-4 -15 -3 -10 5 8 13 3 16 -7 5z"/>
<path d="M1650 486 c0 -8 4 -17 9 -20 5 -4 7 3 4 14 -6 23 -13 26 -13 6z"/>
<path d="M315 479 c-4 -6 -5 -12 -2 -15 2 -3 7 2 10 11 7 17 1 20 -8 4z"/>
<path d="M570 480 c0 -5 5 -10 10 -10 6 0 10 5 10 10 0 6 -4 10 -10 10 -5 0
-10 -4 -10 -10z"/>
<path d="M625 481 c-6 -11 13 -26 22 -17 4 3 0 6 -8 6 -11 0 -11 2 1 10 9 6
10 10 3 10 -6 0 -14 -4 -18 -9z"/>
<path d="M690 480 c0 -5 7 -7 15 -4 8 4 15 8 15 10 0 2 -7 4 -15 4 -8 0 -15
-4 -15 -10z"/>
<path d="M1415 480 c3 -5 11 -10 16 -10 6 0 7 5 4 10 -3 6 -11 10 -16 10 -6 0
-7 -4 -4 -10z"/>
<path d="M1675 480 c3 -5 8 -10 11 -10 2 0 4 5 4 10 0 6 -5 10 -11 10 -5 0 -7
-4 -4 -10z"/>
</g>
</svg>
